# MagicaVoxel @ Ephtracy

# material
mtllib chicken.mtl
usemtl palette

# normals
vn -1 0 0
vn 1 0 0
vn 0 0 1
vn 0 0 -1
vn 0 -1 0
vn 0 1 0

# texcoords
vt 0.369141 0.5
vt 0.373047 0.5
vt 0.958984 0.5

# verts
v 1 0 -3
v 1 0 -4
v 1 1 6
v 1 1 2
v 1 1 -2
v 1 1 -3
v 1 2 6
v 1 2 5
v 1 2 3
v 1 2 2
v 1 2 -2
v 1 2 -4
v 1 3 4
v 1 3 3
v 1 4 5
v 1 4 4
v 2 0 6
v 2 0 5
v 2 0 3
v 2 0 2
v 2 0 1
v 2 0 -1
v 2 0 -2
v 2 0 -3
v 2 1 6
v 2 1 5
v 2 1 3
v 2 1 2
v 2 1 1
v 2 1 -1
v 2 1 -2
v 2 1 -3
v 2 2 6
v 2 2 5
v 2 2 3
v 2 2 2
v 2 2 1
v 2 2 -2
v 2 3 6
v 2 3 5
v 2 3 4
v 2 3 3
v 2 3 2
v 2 4 4
v 2 4 3
v 3 0 5
v 3 0 4
v 3 0 3
v 3 0 -1
v 3 0 -2
v 3 0 -3
v 3 0 -4
v 3 1 5
v 3 1 4
v 3 1 3
v 3 1 -1
v 3 1 -2
v 3 2 -3
v 3 2 -4
v 3 3 3
v 3 3 2
v 3 4 5
v 3 4 4
v 3 4 3
v 3 4 2
v 3 5 5
v 3 5 4
v 2 0 -3
v 2 0 -4
v 2 2 -3
v 2 2 -4
v 3 0 1
v 3 0 -0
v 3 1 1
v 3 1 -0
v 4 0 6
v 4 0 4
v 4 0 3
v 4 0 2
v 4 0 -0
v 4 0 -4
v 4 1 6
v 4 1 4
v 4 1 3
v 4 1 2
v 4 1 1
v 4 1 -0
v 4 2 6
v 4 2 5
v 4 2 3
v 4 2 2
v 4 2 1
v 4 2 -4
v 4 3 6
v 4 3 5
v 4 4 5
v 4 4 4
v 4 4 3
v 4 4 2
v 4 5 5
v 4 5 4
v 5 1 6
v 5 1 5
v 5 1 3
v 5 1 2
v 5 2 6
v 5 2 5
v 5 2 3
v 5 2 2
v 5 3 5
v 5 3 3
v 5 4 5
v 5 4 3
v 6 0 4
v 6 0 3
v 6 1 5
v 6 1 4
v 6 3 5
v 6 3 3
v 1 1 6
v 1 2 6
v 2 0 6
v 2 1 6
v 2 2 6
v 2 3 6
v 4 0 6
v 4 1 6
v 4 2 6
v 4 3 6
v 5 1 6
v 5 2 6
v 1 2 5
v 1 4 5
v 2 2 5
v 2 3 5
v 3 4 5
v 3 5 5
v 4 2 5
v 4 3 5
v 4 4 5
v 4 5 5
v 5 1 5
v 5 2 5
v 5 3 5
v 5 4 5
v 6 1 5
v 6 3 5
v 4 0 4
v 4 1 4
v 6 0 4
v 6 1 4
v 2 0 3
v 2 1 3
v 3 0 3
v 3 1 3
v 2 0 1
v 2 1 1
v 3 0 1
v 3 1 1
v 3 0 -0
v 3 1 -0
v 4 0 -0
v 4 1 -0
v 1 1 -2
v 1 2 -2
v 2 0 -2
v 2 1 -2
v 2 2 -2
v 3 0 -2
v 3 1 -2
v 1 0 -3
v 1 1 -3
v 2 0 -3
v 2 1 -3
v 2 0 5
v 2 1 5
v 3 0 5
v 3 1 5
v 1 3 4
v 1 4 4
v 2 3 4
v 2 4 4
v 3 4 4
v 3 5 4
v 4 4 4
v 4 5 4
v 1 2 3
v 1 3 3
v 2 2 3
v 2 3 3
v 2 4 3
v 3 3 3
v 3 4 3
v 4 0 3
v 4 1 3
v 4 2 3
v 4 4 3
v 5 1 3
v 5 2 3
v 5 3 3
v 5 4 3
v 6 0 3
v 6 3 3
v 1 1 2
v 1 2 2
v 2 0 2
v 2 1 2
v 2 2 2
v 2 3 2
v 3 3 2
v 3 4 2
v 4 0 2
v 4 1 2
v 4 2 2
v 4 4 2
v 5 1 2
v 5 2 2
v 2 0 -1
v 2 1 -1
v 3 0 -1
v 3 1 -1
v 2 0 -3
v 2 2 -3
v 3 0 -3
v 3 2 -3
v 1 0 -4
v 1 2 -4
v 2 0 -4
v 2 2 -4
v 3 0 -4
v 3 2 -4
v 4 0 -4
v 4 2 -4
v 2 0 6
v 4 0 6
v 2 0 5
v 3 0 5
v 3 0 4
v 4 0 4
v 6 0 4
v 2 0 3
v 3 0 3
v 4 0 3
v 6 0 3
v 2 0 2
v 4 0 2
v 2 0 1
v 3 0 1
v 3 0 -0
v 4 0 -0
v 2 0 -1
v 3 0 -1
v 2 0 -2
v 3 0 -2
v 1 0 -3
v 2 0 -3
v 3 0 -3
v 1 0 -4
v 2 0 -4
v 3 0 -4
v 4 0 -4
v 1 1 6
v 2 1 6
v 4 1 6
v 5 1 6
v 2 1 5
v 3 1 5
v 5 1 5
v 6 1 5
v 3 1 4
v 4 1 4
v 6 1 4
v 2 1 3
v 3 1 3
v 4 1 3
v 5 1 3
v 1 1 2
v 2 1 2
v 4 1 2
v 5 1 2
v 2 1 1
v 3 1 1
v 4 1 1
v 3 1 -0
v 4 1 -0
v 2 1 -1
v 3 1 -1
v 1 1 -2
v 2 1 -2
v 3 1 -2
v 1 1 -3
v 2 1 -3
v 1 2 6
v 2 2 6
v 4 2 6
v 5 2 6
v 1 2 5
v 2 2 5
v 4 2 5
v 5 2 5
v 1 2 3
v 2 2 3
v 4 2 3
v 5 2 3
v 1 2 2
v 2 2 2
v 4 2 2
v 5 2 2
v 2 2 1
v 4 2 1
v 1 2 -2
v 2 2 -2
v 2 2 -3
v 3 2 -3
v 1 2 -4
v 2 2 -4
v 3 2 -4
v 4 2 -4
v 2 3 6
v 4 3 6
v 2 3 5
v 4 3 5
v 5 3 5
v 6 3 5
v 1 3 4
v 2 3 4
v 1 3 3
v 2 3 3
v 3 3 3
v 5 3 3
v 6 3 3
v 2 3 2
v 3 3 2
v 1 4 5
v 3 4 5
v 4 4 5
v 5 4 5
v 1 4 4
v 2 4 4
v 3 4 4
v 4 4 4
v 2 4 3
v 3 4 3
v 4 4 3
v 5 4 3
v 3 4 2
v 4 4 2
v 3 5 5
v 4 5 5
v 3 5 4
v 4 5 4

# faces
f 6/3/1 2/3/1 1/3/1
f 7/2/1 4/2/1 3/2/1
f 8/2/1 4/2/1 7/2/1
f 9/2/1 4/2/1 8/2/1
f 10/2/1 4/2/1 9/2/1
f 11/3/1 6/3/1 5/3/1
f 12/3/1 2/3/1 6/3/1
f 12/3/1 6/3/1 11/3/1
f 13/2/1 9/2/1 8/2/1
f 14/2/1 9/2/1 13/2/1
f 15/2/1 13/2/1 8/2/1
f 16/2/1 13/2/1 15/2/1
f 25/1/1 18/1/1 17/1/1
f 26/1/1 18/1/1 25/1/1
f 27/1/1 20/1/1 19/1/1
f 28/1/1 20/1/1 27/1/1
f 29/3/1 22/3/1 21/3/1
f 30/3/1 22/3/1 29/3/1
f 31/3/1 24/3/1 23/3/1
f 32/3/1 24/3/1 31/3/1
f 36/2/1 29/2/1 28/2/1
f 37/3/1 30/3/1 29/3/1
f 37/3/1 31/3/1 30/3/1
f 37/2/1 29/2/1 36/2/1
f 38/3/1 31/3/1 37/3/1
f 39/2/1 34/2/1 33/2/1
f 40/2/1 34/2/1 39/2/1
f 42/2/1 36/2/1 35/2/1
f 43/2/1 36/2/1 42/2/1
f 44/2/1 42/2/1 41/2/1
f 45/2/1 42/2/1 44/2/1
f 53/1/1 47/1/1 46/1/1
f 54/2/1 48/2/1 47/2/1
f 54/1/1 47/1/1 53/1/1
f 55/2/1 48/2/1 54/2/1
f 56/3/1 50/3/1 49/3/1
f 57/3/1 50/3/1 56/3/1
f 58/3/1 52/3/1 51/3/1
f 59/3/1 52/3/1 58/3/1
f 64/2/1 61/2/1 60/2/1
f 65/2/1 61/2/1 64/2/1
f 66/2/1 63/2/1 62/2/1
f 67/2/1 63/2/1 66/2/1
f 68/3/2 69/3/2 70/3/2
f 70/3/2 69/3/2 71/3/2
f 72/3/2 73/3/2 74/3/2
f 74/3/2 73/3/2 75/3/2
f 76/1/2 77/1/2 82/1/2
f 82/1/2 77/1/2 83/1/2
f 78/1/2 79/1/2 84/1/2
f 84/1/2 79/1/2 85/1/2
f 80/3/2 81/3/2 87/3/2
f 85/2/2 86/2/2 91/2/2
f 86/3/2 87/3/2 92/3/2
f 91/2/2 86/2/2 92/2/2
f 87/3/2 81/3/2 93/3/2
f 92/3/2 87/3/2 93/3/2
f 88/2/2 89/2/2 94/2/2
f 94/2/2 89/2/2 95/2/2
f 90/2/2 91/2/2 98/2/2
f 98/2/2 91/2/2 99/2/2
f 96/2/2 97/2/2 100/2/2
f 100/2/2 97/2/2 101/2/2
f 102/2/2 103/2/2 106/2/2
f 106/2/2 103/2/2 107/2/2
f 104/2/2 105/2/2 108/2/2
f 108/2/2 105/2/2 109/2/2
f 110/2/2 111/2/2 112/2/2
f 112/2/2 111/2/2 113/2/2
f 114/2/2 115/2/2 117/2/2
f 116/2/2 117/2/2 118/2/2
f 117/2/2 115/2/2 119/2/2
f 118/2/2 117/2/2 119/2/2
f 123/2/3 121/2/3 120/2/3
f 124/2/3 121/2/3 123/2/3
f 126/1/3 123/1/3 122/1/3
f 127/2/3 125/2/3 124/2/3
f 127/1/3 123/1/3 126/1/3
f 127/2/3 124/2/3 123/2/3
f 128/2/3 125/2/3 127/2/3
f 129/2/3 125/2/3 128/2/3
f 130/2/3 128/2/3 127/2/3
f 131/2/3 128/2/3 130/2/3
f 134/2/3 133/2/3 132/2/3
f 135/2/3 133/2/3 134/2/3
f 136/2/3 133/2/3 135/2/3
f 139/2/3 136/2/3 135/2/3
f 139/2/3 137/2/3 136/2/3
f 140/2/3 137/2/3 139/2/3
f 141/2/3 137/2/3 140/2/3
f 143/2/3 139/2/3 138/2/3
f 143/2/3 140/2/3 139/2/3
f 144/2/3 140/2/3 143/2/3
f 145/2/3 140/2/3 144/2/3
f 146/2/3 143/2/3 142/2/3
f 146/2/3 144/2/3 143/2/3
f 147/2/3 144/2/3 146/2/3
f 150/2/3 149/2/3 148/2/3
f 151/2/3 149/2/3 150/2/3
f 154/1/3 153/1/3 152/1/3
f 155/1/3 153/1/3 154/1/3
f 158/3/3 157/3/3 156/3/3
f 159/3/3 157/3/3 158/3/3
f 162/3/3 161/3/3 160/3/3
f 163/3/3 161/3/3 162/3/3
f 167/3/3 165/3/3 164/3/3
f 168/3/3 165/3/3 167/3/3
f 169/3/3 167/3/3 166/3/3
f 170/3/3 167/3/3 169/3/3
f 173/3/3 172/3/3 171/3/3
f 174/3/3 172/3/3 173/3/3
f 175/1/4 176/1/4 177/1/4
f 177/1/4 176/1/4 178/1/4
f 179/2/4 180/2/4 181/2/4
f 181/2/4 180/2/4 182/2/4
f 183/2/4 184/2/4 185/2/4
f 185/2/4 184/2/4 186/2/4
f 187/2/4 188/2/4 189/2/4
f 189/2/4 188/2/4 190/2/4
f 190/2/4 191/2/4 192/2/4
f 192/2/4 191/2/4 193/2/4
f 194/2/4 195/2/4 198/2/4
f 196/2/4 197/2/4 199/2/4
f 199/2/4 197/2/4 200/2/4
f 200/2/4 197/2/4 201/2/4
f 194/2/4 198/2/4 202/2/4
f 198/2/4 199/2/4 202/2/4
f 199/2/4 200/2/4 202/2/4
f 202/2/4 200/2/4 203/2/4
f 204/2/4 205/2/4 207/2/4
f 207/2/4 205/2/4 208/2/4
f 208/2/4 209/2/4 210/2/4
f 206/1/4 207/1/4 212/1/4
f 212/1/4 207/1/4 213/1/4
f 210/2/4 211/2/4 214/2/4
f 208/2/4 210/2/4 214/2/4
f 214/2/4 211/2/4 215/2/4
f 213/2/4 214/2/4 216/2/4
f 216/2/4 214/2/4 217/2/4
f 218/3/4 219/3/4 220/3/4
f 220/3/4 219/3/4 221/3/4
f 222/3/4 223/3/4 224/3/4
f 224/3/4 223/3/4 225/3/4
f 226/3/4 227/3/4 228/3/4
f 228/3/4 227/3/4 229/3/4
f 230/3/4 231/3/4 232/3/4
f 232/3/4 231/3/4 233/3/4
f 236/1/5 235/1/5 234/1/5
f 237/1/5 235/1/5 236/1/5
f 238/1/5 235/1/5 237/1/5
f 239/1/5 235/1/5 238/1/5
f 242/2/5 239/2/5 238/2/5
f 242/2/5 240/2/5 239/2/5
f 243/2/5 240/2/5 242/2/5
f 244/2/5 240/2/5 243/2/5
f 245/1/5 242/1/5 241/1/5
f 245/1/5 243/1/5 242/1/5
f 246/1/5 243/1/5 245/1/5
f 249/3/5 248/3/5 247/3/5
f 251/3/5 249/3/5 247/3/5
f 251/3/5 250/3/5 249/3/5
f 252/3/5 250/3/5 251/3/5
f 254/3/5 250/3/5 252/3/5
f 256/3/5 254/3/5 253/3/5
f 257/3/5 250/3/5 254/3/5
f 257/3/5 254/3/5 256/3/5
f 258/3/5 256/3/5 255/3/5
f 259/3/5 256/3/5 258/3/5
f 260/3/5 250/3/5 257/3/5
f 261/3/5 250/3/5 260/3/5
f 266/2/5 263/2/5 262/2/5
f 268/2/5 265/2/5 264/2/5
f 270/2/5 267/2/5 266/2/5
f 271/2/5 269/2/5 268/2/5
f 271/2/5 268/2/5 264/2/5
f 272/2/5 269/2/5 271/2/5
f 273/2/5 270/2/5 266/2/5
f 273/2/5 266/2/5 262/2/5
f 274/2/5 270/2/5 273/2/5
f 277/2/5 273/2/5 262/2/5
f 278/2/5 273/2/5 277/2/5
f 279/2/5 276/2/5 275/2/5
f 280/2/5 276/2/5 279/2/5
f 281/2/5 279/2/5 278/2/5
f 282/2/5 279/2/5 281/2/5
f 283/2/5 279/2/5 282/2/5
f 284/3/5 283/3/5 282/3/5
f 285/3/5 283/3/5 284/3/5
f 289/3/5 287/3/5 286/3/5
f 290/3/5 287/3/5 289/3/5
f 291/3/5 289/3/5 288/3/5
f 292/3/5 289/3/5 291/3/5
f 293/2/6 294/2/6 297/2/6
f 297/2/6 294/2/6 298/2/6
f 295/2/6 296/2/6 299/2/6
f 299/2/6 296/2/6 300/2/6
f 301/2/6 302/2/6 305/2/6
f 305/2/6 302/2/6 306/2/6
f 303/2/6 304/2/6 307/2/6
f 307/2/6 304/2/6 308/2/6
f 306/2/6 307/2/6 309/2/6
f 309/2/6 307/2/6 310/2/6
f 309/3/6 310/3/6 312/3/6
f 312/3/6 310/3/6 313/3/6
f 311/3/6 312/3/6 313/3/6
f 313/3/6 310/3/6 314/3/6
f 311/3/6 313/3/6 315/3/6
f 315/3/6 313/3/6 316/3/6
f 314/3/6 310/3/6 317/3/6
f 317/3/6 310/3/6 318/3/6
f 319/2/6 320/2/6 321/2/6
f 321/2/6 320/2/6 322/2/6
f 325/2/6 326/2/6 327/2/6
f 327/2/6 326/2/6 328/2/6
f 323/2/6 324/2/6 330/2/6
f 330/2/6 324/2/6 331/2/6
f 328/2/6 329/2/6 332/2/6
f 332/2/6 329/2/6 333/2/6
f 334/2/6 335/2/6 338/2/6
f 338/2/6 335/2/6 339/2/6
f 339/2/6 335/2/6 340/2/6
f 336/2/6 337/2/6 341/2/6
f 339/2/6 340/2/6 342/2/6
f 340/2/6 341/2/6 342/2/6
f 342/2/6 341/2/6 343/2/6
f 341/2/6 337/2/6 344/2/6
f 343/2/6 341/2/6 344/2/6
f 344/2/6 337/2/6 345/2/6
f 343/2/6 344/2/6 346/2/6
f 346/2/6 344/2/6 347/2/6
f 348/2/6 349/2/6 350/2/6
f 350/2/6 349/2/6 351/2/6
