# MagicaVoxel @ Ephtracy

# material
mtllib clavier.mtl
usemtl palette

# normals
vn -1 0 0
vn 1 0 0
vn 0 0 1
vn 0 0 -1
vn 0 -1 0
vn 0 1 0

# texcoords
vt 0.974609 0.5
vt 0.982422 0.5

# verts
v -2.5 0 1
v -2.5 0 -0
v -2.5 0 -1
v -2.5 1 1
v -2.5 1 -0
v -2.5 1 -1
v 2.5 0 1
v 2.5 0 -0
v 2.5 0 -1
v 2.5 1 1
v 2.5 1 -0
v 2.5 1 -1
v -2.5 0 1
v -2.5 1 1
v -1.5 0 1
v -1.5 1 1
v -0.5 0 1
v -0.5 1 1
v 0.5 0 1
v 0.5 1 1
v 1.5 0 1
v 1.5 1 1
v 2.5 0 1
v 2.5 1 1
v -2.5 0 -1
v -2.5 1 -1
v -1.5 0 -1
v -1.5 1 -1
v -0.5 0 -1
v -0.5 1 -1
v 0.5 0 -1
v 0.5 1 -1
v 1.5 0 -1
v 1.5 1 -1
v 2.5 0 -1
v 2.5 1 -1
v -2.5 0 1
v -1.5 0 1
v -0.5 0 1
v 0.5 0 1
v 1.5 0 1
v 2.5 0 1
v -2.5 0 -0
v -1.5 0 -0
v -0.5 0 -0
v 0.5 0 -0
v 1.5 0 -0
v 2.5 0 -0
v -2.5 0 -1
v -1.5 0 -1
v -0.5 0 -1
v 0.5 0 -1
v 1.5 0 -1
v 2.5 0 -1
v -2.5 1 1
v -1.5 1 1
v -0.5 1 1
v 0.5 1 1
v 1.5 1 1
v 2.5 1 1
v -2.5 1 -0
v -1.5 1 -0
v -0.5 1 -0
v 0.5 1 -0
v 1.5 1 -0
v 2.5 1 -0
v -2.5 1 -1
v -1.5 1 -1
v -0.5 1 -1
v 0.5 1 -1
v 1.5 1 -1
v 2.5 1 -1

# faces
f 4/1/1 2/1/1 1/1/1
f 5/2/1 3/2/1 2/2/1
f 5/1/1 2/1/1 4/1/1
f 6/2/1 3/2/1 5/2/1
f 7/1/2 8/1/2 10/1/2
f 8/2/2 9/2/2 11/2/2
f 10/1/2 8/1/2 11/1/2
f 11/2/2 9/2/2 12/2/2
f 15/1/3 14/1/3 13/1/3
f 16/1/3 14/1/3 15/1/3
f 17/2/3 16/2/3 15/2/3
f 18/2/3 16/2/3 17/2/3
f 19/1/3 18/1/3 17/1/3
f 20/1/3 18/1/3 19/1/3
f 21/2/3 20/2/3 19/2/3
f 22/2/3 20/2/3 21/2/3
f 23/1/3 22/1/3 21/1/3
f 24/1/3 22/1/3 23/1/3
f 25/2/4 26/2/4 27/2/4
f 27/2/4 26/2/4 28/2/4
f 27/1/4 28/1/4 29/1/4
f 29/1/4 28/1/4 30/1/4
f 29/2/4 30/2/4 31/2/4
f 31/2/4 30/2/4 32/2/4
f 31/1/4 32/1/4 33/1/4
f 33/1/4 32/1/4 34/1/4
f 33/2/4 34/2/4 35/2/4
f 35/2/4 34/2/4 36/2/4
f 43/1/5 38/1/5 37/1/5
f 44/2/5 39/2/5 38/2/5
f 44/1/5 38/1/5 43/1/5
f 45/1/5 40/1/5 39/1/5
f 45/2/5 39/2/5 44/2/5
f 46/2/5 41/2/5 40/2/5
f 46/1/5 40/1/5 45/1/5
f 47/1/5 42/1/5 41/1/5
f 47/2/5 41/2/5 46/2/5
f 48/1/5 42/1/5 47/1/5
f 49/2/5 44/2/5 43/2/5
f 50/1/5 45/1/5 44/1/5
f 50/2/5 44/2/5 49/2/5
f 51/2/5 46/2/5 45/2/5
f 51/1/5 45/1/5 50/1/5
f 52/1/5 47/1/5 46/1/5
f 52/2/5 46/2/5 51/2/5
f 53/2/5 48/2/5 47/2/5
f 53/1/5 47/1/5 52/1/5
f 54/2/5 48/2/5 53/2/5
f 55/1/6 56/1/6 61/1/6
f 56/2/6 57/2/6 62/2/6
f 61/1/6 56/1/6 62/1/6
f 57/1/6 58/1/6 63/1/6
f 62/2/6 57/2/6 63/2/6
f 58/2/6 59/2/6 64/2/6
f 63/1/6 58/1/6 64/1/6
f 59/1/6 60/1/6 65/1/6
f 64/2/6 59/2/6 65/2/6
f 65/1/6 60/1/6 66/1/6
f 61/2/6 62/2/6 67/2/6
f 62/1/6 63/1/6 68/1/6
f 67/2/6 62/2/6 68/2/6
f 63/2/6 64/2/6 69/2/6
f 68/1/6 63/1/6 69/1/6
f 64/1/6 65/1/6 70/1/6
f 69/2/6 64/2/6 70/2/6
f 65/2/6 66/2/6 71/2/6
f 70/1/6 65/1/6 71/1/6
f 71/2/6 66/2/6 72/2/6
