# MagicaVoxel @ Ephtracy

# material
mtllib coeur.mtl
usemtl palette

# normals
vn -1 0 0
vn 1 0 0
vn 0 0 1
vn 0 0 -1
vn 0 -1 0
vn 0 1 0

# texcoords
vt 0.306641 0.5
vt 0.841797 0.5
vt 0.892578 0.5

# verts
v -6 0 4
v -6 0 3
v -6 0 -0
v -6 0 -1
v -6 1 4
v -6 1 3
v -6 1 -0
v -6 1 -1
v -5 0 7
v -5 0 5
v -5 0 4
v -5 0 -1
v -5 0 -2
v -5 1 7
v -5 1 5
v -5 1 4
v -5 1 -1
v -5 1 -2
v -4 0 9
v -4 0 8
v -4 0 7
v -4 0 4
v -4 0 3
v -4 0 -0
v -4 1 9
v -4 1 8
v -4 1 7
v -4 1 4
v -4 1 3
v -4 1 1
v -4 1 -0
v -4 2 3
v -4 2 1
v -3 1 8
v -3 1 7
v -3 1 4
v -3 1 3
v -3 1 1
v -3 1 -0
v -3 2 8
v -3 2 7
v -3 2 4
v -3 2 3
v -3 2 1
v -3 2 -0
v -2 0 7
v -2 0 5
v -2 0 4
v -2 0 -1
v -2 0 -2
v -2 1 7
v -2 1 5
v -2 1 4
v -2 1 -1
v -2 1 -2
v -1 0 4
v -1 0 3
v -1 0 1
v -1 0 -0
v -1 1 4
v -1 1 3
v -1 1 1
v -1 1 -0
v 0 0 6
v 0 0 5
v 0 0 -0
v 0 0 -1
v 0 1 6
v 0 1 5
v 0 1 3
v 0 1 2
v 0 1 -0
v 0 1 -1
v 0 2 3
v 0 2 2
v 1 0 5
v 1 0 3
v 1 1 5
v 1 1 4
v 1 1 3
v 1 2 4
v 1 2 3
v 2 0 3
v 2 0 2
v 2 0 -0
v 2 0 -1
v 2 1 3
v 2 1 2
v 2 1 -0
v 2 1 -1
v -5 0 4
v -5 0 3
v -5 0 -0
v -5 1 4
v -5 1 3
v -5 1 -0
v -4 0 6
v -4 0 5
v -4 0 4
v -4 1 6
v -4 1 5
v -4 1 4
v -3 0 7
v -3 0 6
v -3 0 -1
v -3 0 -2
v -3 1 7
v -3 1 6
v -3 1 -1
v -3 1 -2
v -2 0 9
v -2 0 8
v -2 0 4
v -2 0 3
v -2 0 1
v -2 0 -1
v -2 1 9
v -2 1 8
v -2 1 7
v -2 1 4
v -2 1 3
v -2 1 2
v -2 1 1
v -2 1 -0
v -2 1 -1
v -2 2 8
v -2 2 7
v -2 2 4
v -2 2 3
v -2 2 2
v -2 2 1
v -2 2 -0
v -1 0 8
v -1 0 7
v -1 0 6
v -1 0 5
v -1 1 8
v -1 1 7
v -1 1 6
v -1 1 5
v 0 0 5
v 0 0 4
v 0 0 3
v 0 1 5
v 0 1 4
v 0 1 3
v 0 1 2
v 0 1 1
v 0 2 2
v 0 2 1
v 1 0 7
v 1 0 6
v 1 0 3
v 1 0 2
v 1 0 -0
v 1 0 -1
v 1 1 7
v 1 1 6
v 1 1 3
v 1 1 2
v 1 1 -0
v 1 1 -1
v 1 2 3
v 1 2 2
v 2 0 6
v 2 0 3
v 2 0 -1
v 2 0 -2
v 2 1 6
v 2 1 4
v 2 1 3
v 2 1 -1
v 2 1 -2
v 2 2 4
v 2 2 3
v 3 0 3
v 3 0 -1
v 3 1 3
v 3 1 -1
v -4 0 9
v -4 1 9
v -2 0 9
v -2 1 9
v -3 1 8
v -3 2 8
v -2 0 8
v -2 1 8
v -2 2 8
v -1 0 8
v -1 1 8
v -5 0 7
v -5 1 7
v -4 0 7
v -4 1 7
v -1 0 7
v -1 1 7
v 0 0 7
v 0 1 7
v 1 0 7
v 1 1 7
v 1 0 6
v 1 1 6
v 2 0 6
v 2 1 6
v -1 0 5
v -1 1 5
v 0 0 5
v 0 1 5
v -6 0 4
v -6 1 4
v -5 0 4
v -5 1 4
v -4 0 4
v -4 1 4
v -3 0 4
v -3 1 4
v -3 2 4
v -2 0 4
v -2 1 4
v -2 2 4
v 1 1 4
v 1 2 4
v 2 1 4
v 2 2 4
v -4 1 3
v -4 2 3
v -3 1 3
v -3 2 3
v -2 0 3
v -2 1 3
v -1 0 3
v -1 1 3
v 0 0 3
v 0 1 3
v 0 2 3
v 1 0 3
v 1 1 3
v 1 2 3
v 2 0 3
v 2 1 3
v 3 0 3
v 3 1 3
v -2 1 2
v -2 2 2
v -1 1 2
v -1 2 2
v 0 1 2
v 0 2 2
v 1 0 2
v 1 1 2
v 2 0 2
v 2 1 2
v -5 0 -0
v -5 1 -0
v -4 0 -0
v -4 1 -0
v -2 0 -1
v -2 1 -1
v 0 0 -1
v 0 1 -1
v 1 0 -1
v 1 1 -1
v 2 0 -1
v 2 1 -1
v -3 0 7
v -3 1 7
v -3 2 7
v -2 0 7
v -2 1 7
v -2 2 7
v -4 0 6
v -4 1 6
v -3 0 6
v -3 1 6
v -1 0 6
v -1 1 6
v 0 0 6
v 0 1 6
v 0 0 5
v 0 1 5
v 1 0 5
v 1 1 5
v -5 0 4
v -5 1 4
v -4 0 4
v -4 1 4
v -2 0 4
v -2 1 4
v -1 0 4
v -1 1 4
v 1 0 3
v 1 1 3
v 1 2 3
v 2 0 3
v 2 1 3
v 2 2 3
v 0 1 2
v 0 2 2
v 1 1 2
v 1 2 2
v -4 1 1
v -4 2 1
v -3 1 1
v -3 2 1
v -2 0 1
v -2 1 1
v -2 2 1
v -1 0 1
v -1 1 1
v -1 2 1
v 0 1 1
v 0 2 1
v -3 1 -0
v -3 2 -0
v -2 1 -0
v -2 2 -0
v -1 0 -0
v -1 1 -0
v 0 0 -0
v 0 1 -0
v 1 0 -0
v 1 1 -0
v 2 0 -0
v 2 1 -0
v -6 0 -1
v -6 1 -1
v -5 0 -1
v -5 1 -1
v -3 0 -1
v -3 1 -1
v -2 0 -1
v -2 1 -1
v 2 0 -1
v 2 1 -1
v 3 0 -1
v 3 1 -1
v -5 0 -2
v -5 1 -2
v -3 0 -2
v -3 1 -2
v -2 0 -2
v -2 1 -2
v 0 0 -2
v 0 1 -2
v 2 0 -2
v 2 1 -2
v -4 0 9
v -2 0 9
v -4 0 8
v -3 0 8
v -2 0 8
v -1 0 8
v -5 0 7
v -4 0 7
v -3 0 7
v -2 0 7
v -1 0 7
v 0 0 7
v 1 0 7
v -4 0 6
v -3 0 6
v -1 0 6
v 0 0 6
v 1 0 6
v 2 0 6
v -5 0 5
v -4 0 5
v -2 0 5
v -1 0 5
v 0 0 5
v 1 0 5
v -6 0 4
v -5 0 4
v -4 0 4
v -3 0 4
v -2 0 4
v -1 0 4
v 0 0 4
v -6 0 3
v -5 0 3
v -4 0 3
v -3 0 3
v -2 0 3
v -1 0 3
v 0 0 3
v 1 0 3
v 2 0 3
v 3 0 3
v -2 0 2
v -1 0 2
v 1 0 2
v 2 0 2
v -2 0 1
v -1 0 1
v 0 0 1
v 2 0 1
v -6 0 -0
v -5 0 -0
v -4 0 -0
v -3 0 -0
v -1 0 -0
v 0 0 -0
v 1 0 -0
v 2 0 -0
v -6 0 -1
v -5 0 -1
v -4 0 -1
v -3 0 -1
v -2 0 -1
v 0 0 -1
v 1 0 -1
v 2 0 -1
v 3 0 -1
v -5 0 -2
v -3 0 -2
v -2 0 -2
v 0 0 -2
v 2 0 -2
v -4 1 9
v -2 1 9
v -4 1 8
v -3 1 8
v -2 1 8
v -1 1 8
v -5 1 7
v -4 1 7
v -3 1 7
v -2 1 7
v -1 1 7
v 0 1 7
v 1 1 7
v -4 1 6
v -3 1 6
v -1 1 6
v 0 1 6
v 1 1 6
v 2 1 6
v -5 1 5
v -4 1 5
v -2 1 5
v -1 1 5
v 0 1 5
v 1 1 5
v -6 1 4
v -5 1 4
v -4 1 4
v -3 1 4
v -2 1 4
v -1 1 4
v 0 1 4
v 1 1 4
v 2 1 4
v -6 1 3
v -5 1 3
v -4 1 3
v -3 1 3
v -2 1 3
v -1 1 3
v 0 1 3
v 2 1 3
v 3 1 3
v -2 1 2
v -1 1 2
v 0 1 2
v 1 1 2
v 2 1 2
v -4 1 1
v -3 1 1
v -1 1 1
v 0 1 1
v 2 1 1
v -6 1 -0
v -5 1 -0
v -4 1 -0
v -3 1 -0
v -2 1 -0
v -1 1 -0
v 0 1 -0
v 1 1 -0
v 2 1 -0
v -6 1 -1
v -5 1 -1
v -4 1 -1
v -3 1 -1
v -2 1 -1
v 0 1 -1
v 1 1 -1
v 2 1 -1
v 3 1 -1
v -5 1 -2
v -3 1 -2
v -2 1 -2
v 0 1 -2
v 2 1 -2
v -3 2 8
v -2 2 8
v -3 2 7
v -2 2 7
v -3 2 4
v -2 2 4
v 1 2 4
v 2 2 4
v -4 2 3
v -3 2 3
v -2 2 3
v 0 2 3
v 1 2 3
v 2 2 3
v -2 2 2
v -1 2 2
v 0 2 2
v 1 2 2
v -4 2 1
v -3 2 1
v -2 2 1
v -1 2 1
v 0 2 1
v -3 2 -0
v -2 2 -0

# faces
f 5/2/1 2/2/1 1/2/1
f 6/3/1 3/3/1 2/3/1
f 6/2/1 2/2/1 5/2/1
f 7/2/1 4/2/1 3/2/1
f 7/3/1 3/3/1 6/3/1
f 8/2/1 4/2/1 7/2/1
f 14/2/1 10/2/1 9/2/1
f 15/3/1 11/3/1 10/3/1
f 15/2/1 10/2/1 14/2/1
f 16/3/1 11/3/1 15/3/1
f 17/2/1 13/2/1 12/2/1
f 18/2/1 13/2/1 17/2/1
f 25/1/1 20/1/1 19/1/1
f 26/2/1 21/2/1 20/2/1
f 26/1/1 20/1/1 25/1/1
f 27/2/1 21/2/1 26/2/1
f 28/2/1 23/2/1 22/2/1
f 29/1/1 24/1/1 23/1/1
f 29/2/1 23/2/1 28/2/1
f 30/1/1 24/1/1 29/1/1
f 31/1/1 24/1/1 30/1/1
f 32/2/1 30/2/1 29/2/1
f 33/2/1 30/2/1 32/2/1
f 40/2/1 35/2/1 34/2/1
f 41/2/1 35/2/1 40/2/1
f 42/3/1 37/3/1 36/3/1
f 43/3/1 37/3/1 42/3/1
f 44/2/1 39/2/1 38/2/1
f 45/2/1 39/2/1 44/2/1
f 51/2/1 47/2/1 46/2/1
f 52/3/1 48/3/1 47/3/1
f 52/2/1 47/2/1 51/2/1
f 53/3/1 48/3/1 52/3/1
f 54/2/1 50/2/1 49/2/1
f 55/2/1 50/2/1 54/2/1
f 60/3/1 57/3/1 56/3/1
f 61/3/1 57/3/1 60/3/1
f 62/1/1 59/1/1 58/1/1
f 63/1/1 59/1/1 62/1/1
f 68/1/1 65/1/1 64/1/1
f 69/1/1 65/1/1 68/1/1
f 72/2/1 67/2/1 66/2/1
f 73/2/1 67/2/1 72/2/1
f 74/2/1 71/2/1 70/2/1
f 75/2/1 71/2/1 74/2/1
f 78/1/1 77/1/1 76/1/1
f 79/1/1 77/1/1 78/1/1
f 80/1/1 77/1/1 79/1/1
f 81/2/1 80/2/1 79/2/1
f 82/2/1 80/2/1 81/2/1
f 87/1/1 84/1/1 83/1/1
f 88/1/1 84/1/1 87/1/1
f 89/1/1 86/1/1 85/1/1
f 90/1/1 86/1/1 89/1/1
f 91/2/2 92/2/2 94/2/2
f 92/3/2 93/3/2 95/3/2
f 94/2/2 92/2/2 95/2/2
f 95/3/2 93/3/2 96/3/2
f 97/2/2 98/2/2 100/2/2
f 98/3/2 99/3/2 101/3/2
f 100/2/2 98/2/2 101/2/2
f 101/3/2 99/3/2 102/3/2
f 103/2/2 104/2/2 107/2/2
f 107/2/2 104/2/2 108/2/2
f 105/2/2 106/2/2 109/2/2
f 109/2/2 106/2/2 110/2/2
f 111/1/2 112/1/2 117/1/2
f 117/1/2 112/1/2 118/1/2
f 113/3/2 114/3/2 120/3/2
f 120/3/2 114/3/2 121/3/2
f 115/1/2 116/1/2 123/1/2
f 123/1/2 116/1/2 124/1/2
f 124/1/2 116/1/2 125/1/2
f 118/2/2 119/2/2 126/2/2
f 126/2/2 119/2/2 127/2/2
f 120/3/2 121/3/2 128/3/2
f 121/1/2 122/1/2 129/1/2
f 128/3/2 121/3/2 129/3/2
f 129/1/2 122/1/2 130/1/2
f 123/2/2 124/2/2 131/2/2
f 131/2/2 124/2/2 132/2/2
f 133/2/2 134/2/2 137/2/2
f 137/2/2 134/2/2 138/2/2
f 135/2/2 136/2/2 139/2/2
f 139/2/2 136/2/2 140/2/2
f 141/2/2 142/2/2 144/2/2
f 142/3/2 143/3/2 145/3/2
f 144/2/2 142/2/2 145/2/2
f 145/3/2 143/3/2 146/3/2
f 147/2/2 148/2/2 149/2/2
f 149/2/2 148/2/2 150/2/2
f 151/3/2 152/3/2 157/3/2
f 157/3/2 152/3/2 158/3/2
f 153/2/2 154/2/2 159/2/2
f 159/2/2 154/2/2 160/2/2
f 155/2/2 156/2/2 161/2/2
f 161/2/2 156/2/2 162/2/2
f 159/2/2 160/2/2 163/2/2
f 163/2/2 160/2/2 164/2/2
f 165/1/2 166/1/2 169/1/2
f 169/1/2 166/1/2 170/1/2
f 170/1/2 166/1/2 171/1/2
f 167/1/2 168/1/2 172/1/2
f 172/1/2 168/1/2 173/1/2
f 170/2/2 171/2/2 174/2/2
f 174/2/2 171/2/2 175/2/2
f 176/1/2 177/1/2 178/1/2
f 178/1/2 177/1/2 179/1/2
f 182/1/3 181/1/3 180/1/3
f 183/1/3 181/1/3 182/1/3
f 187/2/3 185/2/3 184/2/3
f 188/2/3 185/2/3 187/2/3
f 189/2/3 187/2/3 186/2/3
f 190/2/3 187/2/3 189/2/3
f 193/2/3 192/2/3 191/2/3
f 194/2/3 192/2/3 193/2/3
f 197/2/3 196/2/3 195/2/3
f 198/2/3 196/2/3 197/2/3
f 199/3/3 198/3/3 197/3/3
f 200/3/3 198/3/3 199/3/3
f 203/1/3 202/1/3 201/1/3
f 204/1/3 202/1/3 203/1/3
f 207/2/3 206/2/3 205/2/3
f 208/2/3 206/2/3 207/2/3
f 211/2/3 210/2/3 209/2/3
f 212/2/3 210/2/3 211/2/3
f 215/2/3 214/2/3 213/2/3
f 216/2/3 214/2/3 215/2/3
f 218/3/3 216/3/3 215/3/3
f 218/3/3 217/3/3 216/3/3
f 219/3/3 217/3/3 218/3/3
f 220/3/3 217/3/3 219/3/3
f 223/2/3 222/2/3 221/2/3
f 224/2/3 222/2/3 223/2/3
f 227/2/3 226/2/3 225/2/3
f 228/2/3 226/2/3 227/2/3
f 231/3/3 230/3/3 229/3/3
f 232/3/3 230/3/3 231/3/3
f 236/2/3 234/2/3 233/2/3
f 236/2/3 235/2/3 234/2/3
f 237/2/3 235/2/3 236/2/3
f 238/2/3 235/2/3 237/2/3
f 241/1/3 240/1/3 239/1/3
f 242/1/3 240/1/3 241/1/3
f 245/3/3 244/3/3 243/3/3
f 246/3/3 244/3/3 245/3/3
f 247/2/3 246/2/3 245/2/3
f 248/2/3 246/2/3 247/2/3
f 251/1/3 250/1/3 249/1/3
f 252/1/3 250/1/3 251/1/3
f 255/3/3 254/3/3 253/3/3
f 256/3/3 254/3/3 255/3/3
f 259/2/3 258/2/3 257/2/3
f 260/2/3 258/2/3 259/2/3
f 263/1/3 262/1/3 261/1/3
f 264/1/3 262/1/3 263/1/3
f 265/1/4 266/1/4 268/1/4
f 266/2/4 267/2/4 269/2/4
f 268/1/4 266/1/4 269/1/4
f 269/2/4 267/2/4 270/2/4
f 271/2/4 272/2/4 273/2/4
f 273/2/4 272/2/4 274/2/4
f 275/2/4 276/2/4 277/2/4
f 277/2/4 276/2/4 278/2/4
f 279/1/4 280/1/4 281/1/4
f 281/1/4 280/1/4 282/1/4
f 283/3/4 284/3/4 285/3/4
f 285/3/4 284/3/4 286/3/4
f 287/3/4 288/3/4 289/3/4
f 289/3/4 288/3/4 290/3/4
f 291/1/4 292/1/4 294/1/4
f 292/2/4 293/2/4 295/2/4
f 294/1/4 292/1/4 295/1/4
f 295/2/4 293/2/4 296/2/4
f 297/2/4 298/2/4 299/2/4
f 299/2/4 298/2/4 300/2/4
f 301/2/4 302/2/4 303/2/4
f 303/2/4 302/2/4 304/2/4
f 305/1/4 306/1/4 308/1/4
f 306/3/4 307/3/4 309/3/4
f 308/1/4 306/1/4 309/1/4
f 309/3/4 307/3/4 310/3/4
f 309/2/4 310/2/4 311/2/4
f 311/2/4 310/2/4 312/2/4
f 313/2/4 314/2/4 315/2/4
f 315/2/4 314/2/4 316/2/4
f 317/1/4 318/1/4 319/1/4
f 319/1/4 318/1/4 320/1/4
f 321/2/4 322/2/4 323/2/4
f 323/2/4 322/2/4 324/2/4
f 325/2/4 326/2/4 327/2/4
f 327/2/4 326/2/4 328/2/4
f 329/1/4 330/1/4 331/1/4
f 331/1/4 330/1/4 332/1/4
f 333/1/4 334/1/4 335/1/4
f 335/1/4 334/1/4 336/1/4
f 337/2/4 338/2/4 339/2/4
f 339/2/4 338/2/4 340/2/4
f 341/2/4 342/2/4 343/2/4
f 343/2/4 342/2/4 344/2/4
f 343/1/4 344/1/4 345/1/4
f 345/1/4 344/1/4 346/1/4
f 349/1/5 348/1/5 347/1/5
f 350/1/5 348/1/5 349/1/5
f 351/1/5 348/1/5 350/1/5
f 354/2/5 350/2/5 349/2/5
f 355/1/5 351/1/5 350/1/5
f 355/2/5 350/2/5 354/2/5
f 356/2/5 352/2/5 351/2/5
f 356/1/5 351/1/5 355/1/5
f 357/2/5 352/2/5 356/2/5
f 360/2/5 355/2/5 354/2/5
f 360/2/5 354/2/5 353/2/5
f 361/2/5 355/2/5 360/2/5
f 362/2/5 358/2/5 357/2/5
f 362/2/5 357/2/5 356/2/5
f 363/3/5 359/3/5 358/3/5
f 363/2/5 358/2/5 362/2/5
f 364/3/5 359/3/5 363/3/5
f 366/2/5 360/2/5 353/2/5
f 367/2/5 360/2/5 366/2/5
f 368/2/5 362/2/5 356/2/5
f 369/2/5 362/2/5 368/2/5
f 370/1/5 365/1/5 364/1/5
f 370/1/5 364/1/5 363/1/5
f 371/1/5 365/1/5 370/1/5
f 373/3/5 367/3/5 366/3/5
f 374/3/5 367/3/5 373/3/5
f 376/3/5 369/3/5 368/3/5
f 377/2/5 370/2/5 369/2/5
f 377/3/5 369/3/5 376/3/5
f 378/2/5 370/2/5 377/2/5
f 379/2/5 373/2/5 372/2/5
f 380/2/5 373/2/5 379/2/5
f 381/2/5 375/2/5 374/2/5
f 382/3/5 376/3/5 375/3/5
f 382/2/5 375/2/5 381/2/5
f 383/3/5 376/3/5 382/3/5
f 384/3/5 378/3/5 377/3/5
f 385/3/5 378/3/5 384/3/5
f 386/1/5 365/1/5 371/1/5
f 387/1/5 365/1/5 386/1/5
f 389/3/5 384/3/5 383/3/5
f 389/1/5 383/1/5 382/1/5
f 389/1/5 382/1/5 381/1/5
f 390/2/5 385/2/5 384/2/5
f 390/3/5 384/3/5 389/3/5
f 390/2/5 386/2/5 385/2/5
f 391/2/5 386/2/5 390/2/5
f 392/1/5 388/1/5 387/1/5
f 393/1/5 389/1/5 381/1/5
f 393/1/5 392/1/5 391/1/5
f 393/1/5 391/1/5 390/1/5
f 393/1/5 390/1/5 389/1/5
f 394/1/5 392/1/5 393/1/5
f 395/1/5 392/1/5 394/1/5
f 396/1/5 388/1/5 392/1/5
f 396/1/5 392/1/5 395/1/5
f 397/3/5 380/3/5 379/3/5
f 398/3/5 380/3/5 397/3/5
f 399/1/5 393/1/5 381/1/5
f 400/1/5 393/1/5 399/1/5
f 401/1/5 395/1/5 394/1/5
f 402/2/5 396/2/5 395/2/5
f 402/1/5 395/1/5 401/1/5
f 403/2/5 396/2/5 402/2/5
f 404/1/5 388/1/5 396/1/5
f 404/2/5 396/2/5 403/2/5
f 405/2/5 398/2/5 397/2/5
f 406/3/5 399/3/5 398/3/5
f 406/2/5 398/2/5 405/2/5
f 407/2/5 400/2/5 399/2/5
f 407/3/5 399/3/5 406/3/5
f 408/1/5 393/1/5 400/1/5
f 408/2/5 400/2/5 407/2/5
f 409/1/5 393/1/5 408/1/5
f 410/2/5 403/2/5 402/2/5
f 411/2/5 403/2/5 410/2/5
f 412/1/5 388/1/5 404/1/5
f 413/1/5 388/1/5 412/1/5
f 414/2/5 407/2/5 406/2/5
f 414/2/5 408/2/5 407/2/5
f 415/2/5 408/2/5 414/2/5
f 416/2/5 410/2/5 409/2/5
f 417/1/5 412/1/5 411/1/5
f 417/2/5 410/2/5 416/2/5
f 417/1/5 411/1/5 410/1/5
f 418/1/5 412/1/5 417/1/5
f 419/1/6 420/1/6 421/1/6
f 421/1/6 420/1/6 422/1/6
f 422/1/6 420/1/6 423/1/6
f 421/2/6 422/2/6 426/2/6
f 426/2/6 422/2/6 427/2/6
f 423/2/6 424/2/6 428/2/6
f 428/2/6 424/2/6 429/2/6
f 426/2/6 427/2/6 432/2/6
f 425/2/6 426/2/6 432/2/6
f 432/2/6 427/2/6 433/2/6
f 429/2/6 430/2/6 434/2/6
f 428/2/6 429/2/6 434/2/6
f 430/3/6 431/3/6 435/3/6
f 434/2/6 430/2/6 435/2/6
f 435/3/6 431/3/6 436/3/6
f 425/2/6 432/2/6 438/2/6
f 438/2/6 432/2/6 439/2/6
f 428/2/6 434/2/6 440/2/6
f 440/2/6 434/2/6 441/2/6
f 436/1/6 437/1/6 442/1/6
f 435/1/6 436/1/6 442/1/6
f 442/1/6 437/1/6 443/1/6
f 438/3/6 439/3/6 445/3/6
f 445/3/6 439/3/6 446/3/6
f 440/3/6 441/3/6 448/3/6
f 441/2/6 442/2/6 449/2/6
f 448/3/6 441/3/6 449/3/6
f 449/2/6 442/2/6 450/2/6
f 443/1/6 437/1/6 451/1/6
f 451/1/6 437/1/6 452/1/6
f 444/2/6 445/2/6 453/2/6
f 453/2/6 445/2/6 454/2/6
f 446/2/6 447/2/6 455/2/6
f 455/2/6 447/2/6 456/2/6
f 449/3/6 450/3/6 458/3/6
f 458/3/6 450/3/6 459/3/6
f 457/3/6 458/3/6 462/3/6
f 458/2/6 459/2/6 463/2/6
f 462/3/6 458/3/6 463/3/6
f 463/2/6 459/2/6 464/2/6
f 460/1/6 461/1/6 466/1/6
f 464/1/6 465/1/6 470/1/6
f 465/1/6 466/1/6 470/1/6
f 466/1/6 461/1/6 471/1/6
f 470/1/6 466/1/6 471/1/6
f 453/3/6 454/3/6 472/3/6
f 472/3/6 454/3/6 473/3/6
f 467/1/6 468/1/6 474/1/6
f 474/1/6 468/1/6 475/1/6
f 469/1/6 470/1/6 477/1/6
f 470/2/6 471/2/6 478/2/6
f 477/1/6 470/1/6 478/1/6
f 478/2/6 471/2/6 479/2/6
f 471/1/6 461/1/6 480/1/6
f 479/2/6 471/2/6 480/2/6
f 472/2/6 473/2/6 481/2/6
f 473/3/6 474/3/6 482/3/6
f 481/2/6 473/2/6 482/2/6
f 474/2/6 475/2/6 483/2/6
f 482/3/6 474/3/6 483/3/6
f 475/1/6 476/1/6 484/1/6
f 483/2/6 475/2/6 484/2/6
f 484/1/6 476/1/6 485/1/6
f 478/2/6 479/2/6 486/2/6
f 486/2/6 479/2/6 487/2/6
f 480/1/6 461/1/6 488/1/6
f 488/1/6 461/1/6 489/1/6
f 482/2/6 483/2/6 490/2/6
f 483/2/6 484/2/6 490/2/6
f 490/2/6 484/2/6 491/2/6
f 485/2/6 486/2/6 492/2/6
f 486/1/6 487/1/6 493/1/6
f 492/2/6 486/2/6 493/2/6
f 487/1/6 488/1/6 493/1/6
f 493/1/6 488/1/6 494/1/6
f 495/2/6 496/2/6 497/2/6
f 497/2/6 496/2/6 498/2/6
f 499/3/6 500/3/6 504/3/6
f 504/3/6 500/3/6 505/3/6
f 501/2/6 502/2/6 507/2/6
f 507/2/6 502/2/6 508/2/6
f 504/1/6 505/1/6 509/1/6
f 506/2/6 507/2/6 511/2/6
f 511/2/6 507/2/6 512/2/6
f 503/2/6 504/2/6 513/2/6
f 504/1/6 509/1/6 514/1/6
f 513/2/6 504/2/6 514/2/6
f 509/3/6 510/3/6 515/3/6
f 514/1/6 509/1/6 515/1/6
f 510/2/6 511/2/6 516/2/6
f 515/3/6 510/3/6 516/3/6
f 516/2/6 511/2/6 517/2/6
f 514/2/6 515/2/6 518/2/6
f 518/2/6 515/2/6 519/2/6
