# MagicaVoxel @ Ephtracy

# material
mtllib plant-2.mtl
usemtl palette

# normals
vn -1 0 0
vn 1 0 0
vn 0 0 1
vn 0 0 -1
vn 0 -1 0
vn 0 1 0

# texcoords
vt 0.650391 0.5
vt 0.771484 0.5
vt 0.896484 0.5
vt 0.900391 0.5

# verts
v -1 9 2
v -1 9 1
v -1 9 -0
v -1 10 2
v -1 10 1
v -1 10 -0
v -1 11 2
v -1 11 1
v 0 8 3
v 0 8 2
v 0 9 3
v 0 9 2
v 0 10 3
v 0 10 2
v 0 10 1
v 0 10 -0
v 0 11 3
v 0 11 2
v 0 11 1
v 0 11 -0
v 0 12 2
v 0 12 1
v 0 9 2
v 0 9 1
v 0 10 2
v 0 10 1
v 1 8 3
v 1 8 2
v 1 9 3
v 1 9 2
v 1 10 3
v 1 10 2
v 1 10 1
v 1 10 -0
v 1 11 3
v 1 11 2
v 1 11 1
v 1 11 -0
v 1 12 2
v 1 12 1
v 2 9 1
v 2 9 -0
v 2 10 1
v 2 10 -0
v 0 8 3
v 0 9 3
v 0 10 3
v 0 11 3
v 1 8 3
v 1 9 3
v 1 10 3
v 1 11 3
v -1 9 2
v -1 10 2
v -1 11 2
v 0 9 2
v 0 10 2
v 0 11 2
v 0 12 2
v 1 11 2
v 1 12 2
v 0 9 1
v 0 10 1
v 1 9 1
v 1 10 1
v 2 9 1
v 2 10 1
v 0 8 2
v 0 9 2
v 1 8 2
v 1 9 2
v -1 10 1
v -1 11 1
v 0 10 1
v 0 11 1
v 0 12 1
v 1 11 1
v 1 12 1
v -1 9 -0
v -1 10 -0
v 0 10 -0
v 0 11 -0
v 1 9 -0
v 1 10 -0
v 1 11 -0
v 2 9 -0
v 2 10 -0
v 0 8 3
v 1 8 3
v 0 8 2
v 1 8 2
v -1 9 2
v 0 9 2
v -1 9 1
v 0 9 1
v 1 9 1
v 2 9 1
v -1 9 -0
v 1 9 -0
v 2 9 -0
v 0 10 3
v 1 10 3
v 0 10 2
v 1 10 2
v 0 10 1
v 1 10 1
v 0 9 3
v 1 9 3
v 0 9 2
v 1 9 2
v -1 10 1
v 0 10 1
v 1 10 1
v 2 10 1
v -1 10 -0
v 0 10 -0
v 1 10 -0
v 2 10 -0
v 0 11 3
v 1 11 3
v -1 11 2
v 0 11 2
v 1 11 2
v -1 11 1
v 0 11 1
v 1 11 1
v 0 11 -0
v 1 11 -0
v 0 12 2
v 1 12 2
v 0 12 1
v 1 12 1

# faces
f 4/4/1 2/4/1 1/4/1
f 5/1/1 3/1/1 2/1/1
f 5/4/1 2/4/1 4/4/1
f 6/1/1 3/1/1 5/1/1
f 7/3/1 5/3/1 4/3/1
f 8/3/1 5/3/1 7/3/1
f 11/2/1 10/2/1 9/2/1
f 12/2/1 10/2/1 11/2/1
f 17/2/1 14/2/1 13/2/1
f 18/2/1 14/2/1 17/2/1
f 19/3/1 16/3/1 15/3/1
f 20/3/1 16/3/1 19/3/1
f 21/4/1 19/4/1 18/4/1
f 22/4/1 19/4/1 21/4/1
f 23/4/2 24/4/2 25/4/2
f 25/4/2 24/4/2 26/4/2
f 27/2/2 28/2/2 29/2/2
f 29/2/2 28/2/2 30/2/2
f 31/2/2 32/2/2 35/2/2
f 33/3/2 34/3/2 36/3/2
f 35/2/2 32/2/2 36/2/2
f 32/3/2 33/3/2 36/3/2
f 36/3/2 34/3/2 37/3/2
f 37/3/2 34/3/2 38/3/2
f 36/4/2 37/4/2 39/4/2
f 39/4/2 37/4/2 40/4/2
f 41/3/2 42/3/2 43/3/2
f 43/3/2 42/3/2 44/3/2
f 49/2/3 46/2/3 45/2/3
f 50/2/3 46/2/3 49/2/3
f 51/2/3 48/2/3 47/2/3
f 52/2/3 48/2/3 51/2/3
f 56/4/3 54/4/3 53/4/3
f 57/3/3 55/3/3 54/3/3
f 57/4/3 54/4/3 56/4/3
f 58/3/3 55/3/3 57/3/3
f 60/4/3 59/4/3 58/4/3
f 61/4/3 59/4/3 60/4/3
f 64/1/3 63/1/3 62/1/3
f 65/1/3 63/1/3 64/1/3
f 66/3/3 65/3/3 64/3/3
f 67/3/3 65/3/3 66/3/3
f 68/2/4 69/2/4 70/2/4
f 70/2/4 69/2/4 71/2/4
f 72/3/4 73/3/4 74/3/4
f 74/3/4 73/3/4 75/3/4
f 75/4/4 76/4/4 77/4/4
f 77/4/4 76/4/4 78/4/4
f 79/1/4 80/1/4 81/1/4
f 79/1/4 81/1/4 83/1/4
f 81/3/4 82/3/4 84/3/4
f 83/1/4 81/1/4 84/1/4
f 84/3/4 82/3/4 85/3/4
f 83/3/4 84/3/4 86/3/4
f 86/3/4 84/3/4 87/3/4
f 90/2/5 89/2/5 88/2/5
f 91/2/5 89/2/5 90/2/5
f 94/4/5 93/4/5 92/4/5
f 95/4/5 93/4/5 94/4/5
f 98/1/5 95/1/5 94/1/5
f 98/1/5 96/1/5 95/1/5
f 99/3/5 97/3/5 96/3/5
f 99/1/5 96/1/5 98/1/5
f 100/3/5 97/3/5 99/3/5
f 103/2/5 102/2/5 101/2/5
f 104/2/5 102/2/5 103/2/5
f 105/3/5 104/3/5 103/3/5
f 106/3/5 104/3/5 105/3/5
f 107/2/6 108/2/6 109/2/6
f 109/2/6 108/2/6 110/2/6
f 111/1/6 112/1/6 115/1/6
f 115/1/6 112/1/6 116/1/6
f 113/3/6 114/3/6 117/3/6
f 117/3/6 114/3/6 118/3/6
f 119/2/6 120/2/6 122/2/6
f 122/2/6 120/2/6 123/2/6
f 121/3/6 122/3/6 124/3/6
f 124/3/6 122/3/6 125/3/6
f 125/3/6 126/3/6 127/3/6
f 127/3/6 126/3/6 128/3/6
f 129/4/6 130/4/6 131/4/6
f 131/4/6 130/4/6 132/4/6
