# MagicaVoxel @ Ephtracy

# material
mtllib plant.mtl
usemtl palette

# normals
vn -1 0 0
vn 1 0 0
vn 0 0 1
vn 0 0 -1
vn 0 -1 0
vn 0 1 0

# texcoords
vt 0.369141 0.5
vt 0.486328 0.5
vt 0.626953 0.5
vt 0.712891 0.5
vt 0.771484 0.5
vt 0.896484 0.5
vt 0.904297 0.5

# verts
v -2 7 2
v -2 7 1
v -2 7 -0
v -2 8 2
v -2 8 1
v -2 9 1
v -2 9 -0
v -1 0 1
v -1 0 -1
v -1 4 1
v -1 4 -1
v -1 6 1
v -1 6 -1
v -1 7 3
v -1 7 2
v -1 7 1
v -1 7 -0
v -1 7 -1
v -1 8 3
v -1 8 2
v 0 4 1
v 0 4 -0
v 0 6 2
v 0 6 1
v 0 6 -0
v 0 7 2
v 0 7 1
v 0 8 3
v 0 8 2
v 0 8 1
v 0 9 3
v 0 9 2
v 0 9 1
v -1 8 1
v -1 8 -0
v -1 9 1
v -1 9 -0
v 0 6 -0
v 0 6 -1
v 0 7 3
v 0 7 2
v 0 7 1
v 0 7 -0
v 0 7 -1
v 0 8 3
v 0 8 2
v 0 8 1
v 1 0 1
v 1 0 -1
v 1 4 1
v 1 4 -0
v 1 4 -1
v 1 6 2
v 1 6 1
v 1 6 -0
v 1 7 2
v 1 7 1
v 1 8 3
v 1 8 2
v 1 8 1
v 1 9 3
v 1 9 2
v 1 9 1
v 2 6 1
v 2 6 -0
v 2 7 1
v 2 7 -0
v 2 8 1
v 2 8 -0
v -1 7 3
v -1 8 3
v 0 7 3
v 0 8 3
v 0 9 3
v 1 8 3
v 1 9 3
v -2 7 2
v -2 8 2
v -1 7 2
v -1 8 2
v 0 6 2
v 0 7 2
v 1 6 2
v 1 7 2
v -2 8 1
v -2 9 1
v -1 0 1
v -1 4 1
v -1 6 1
v -1 7 1
v -1 8 1
v -1 9 1
v 0 4 1
v 0 6 1
v 0 7 1
v 0 8 1
v 1 0 1
v 1 4 1
v 1 6 1
v 1 7 1
v 1 8 1
v 2 6 1
v 2 7 1
v 2 8 1
v 0 8 1
v 0 9 1
v 1 8 1
v 1 9 1
v -2 7 -0
v -2 9 -0
v -1 7 -0
v -1 8 -0
v -1 9 -0
v 0 4 -0
v 0 6 -0
v 0 7 -0
v 0 8 -0
v 1 4 -0
v 1 6 -0
v 1 7 -0
v 1 8 -0
v 2 6 -0
v 2 7 -0
v 2 8 -0
v -1 0 -1
v -1 4 -1
v -1 6 -1
v -1 7 -1
v 0 6 -1
v 0 7 -1
v 1 0 -1
v 1 4 -1
v -1 0 1
v 1 0 1
v -1 0 -1
v 1 0 -1
v 0 6 2
v 1 6 2
v -1 6 1
v 0 6 1
v 1 6 1
v 2 6 1
v 0 6 -0
v 1 6 -0
v 2 6 -0
v -1 6 -1
v 0 6 -1
v -1 7 3
v 0 7 3
v -2 7 2
v -1 7 2
v 0 7 2
v -2 7 1
v -1 7 1
v 0 7 1
v -2 7 -0
v -1 7 -0
v 0 8 3
v 1 8 3
v 0 8 2
v 1 8 2
v 0 8 1
v 1 8 1
v -1 4 1
v 0 4 1
v 0 4 -0
v 1 4 -0
v -1 4 -1
v 1 4 -1
v 0 7 2
v 1 7 2
v 0 7 1
v 1 7 1
v -1 7 -0
v 0 7 -0
v -1 7 -1
v 0 7 -1
v -1 8 3
v 0 8 3
v -2 8 2
v -1 8 2
v 0 8 2
v -2 8 1
v -1 8 1
v 0 8 1
v 1 8 1
v 2 8 1
v -1 8 -0
v 0 8 -0
v 1 8 -0
v 2 8 -0
v 0 9 3
v 1 9 3
v 0 9 2
v 1 9 2
v -2 9 1
v -1 9 1
v 0 9 1
v 1 9 1
v -2 9 -0
v -1 9 -0

# faces
f 4/5/1 2/5/1 1/5/1
f 5/3/1 3/3/1 2/3/1
f 5/5/1 2/5/1 4/5/1
f 6/3/1 3/3/1 5/3/1
f 7/3/1 3/3/1 6/3/1
f 10/1/1 9/1/1 8/1/1
f 11/1/1 9/1/1 10/1/1
f 16/4/1 13/4/1 12/4/1
f 17/4/1 13/4/1 16/4/1
f 18/4/1 13/4/1 17/4/1
f 19/5/1 15/5/1 14/5/1
f 20/5/1 15/5/1 19/5/1
f 24/2/1 22/2/1 21/2/1
f 25/2/1 22/2/1 24/2/1
f 26/6/1 24/6/1 23/6/1
f 27/6/1 24/6/1 26/6/1
f 31/5/1 29/5/1 28/5/1
f 32/7/1 30/7/1 29/7/1
f 32/5/1 29/5/1 31/5/1
f 33/7/1 30/7/1 32/7/1
f 34/3/2 35/3/2 36/3/2
f 36/3/2 35/3/2 37/3/2
f 38/4/2 39/4/2 43/4/2
f 43/4/2 39/4/2 44/4/2
f 40/5/2 41/5/2 45/5/2
f 41/6/2 42/6/2 46/6/2
f 45/5/2 41/5/2 46/5/2
f 46/6/2 42/6/2 47/6/2
f 48/1/2 49/1/2 50/1/2
f 50/1/2 49/1/2 51/1/2
f 51/1/2 49/1/2 52/1/2
f 50/2/2 51/2/2 54/2/2
f 54/2/2 51/2/2 55/2/2
f 53/6/2 54/6/2 56/6/2
f 56/6/2 54/6/2 57/6/2
f 58/5/2 59/5/2 61/5/2
f 59/7/2 60/7/2 62/7/2
f 61/5/2 59/5/2 62/5/2
f 62/7/2 60/7/2 63/7/2
f 64/6/2 65/6/2 66/6/2
f 66/6/2 65/6/2 67/6/2
f 66/7/2 67/7/2 68/7/2
f 68/7/2 67/7/2 69/7/2
f 72/5/3 71/5/3 70/5/3
f 73/5/3 71/5/3 72/5/3
f 75/5/3 74/5/3 73/5/3
f 76/5/3 74/5/3 75/5/3
f 79/5/3 78/5/3 77/5/3
f 80/5/3 78/5/3 79/5/3
f 83/6/3 82/6/3 81/6/3
f 84/6/3 82/6/3 83/6/3
f 91/3/3 86/3/3 85/3/3
f 92/3/3 86/3/3 91/3/3
f 93/1/3 88/1/3 87/1/3
f 94/4/3 90/4/3 89/4/3
f 95/4/3 90/4/3 94/4/3
f 97/1/3 93/1/3 87/1/3
f 98/2/3 94/2/3 93/2/3
f 98/1/3 93/1/3 97/1/3
f 99/2/3 94/2/3 98/2/3
f 100/6/3 96/6/3 95/6/3
f 101/6/3 96/6/3 100/6/3
f 102/6/3 100/6/3 99/6/3
f 103/7/3 101/7/3 100/7/3
f 103/6/3 100/6/3 102/6/3
f 104/7/3 101/7/3 103/7/3
f 105/7/4 106/7/4 107/7/4
f 107/7/4 106/7/4 108/7/4
f 109/3/4 110/3/4 111/3/4
f 111/3/4 110/3/4 112/3/4
f 112/3/4 110/3/4 113/3/4
f 111/3/4 112/3/4 116/3/4
f 116/3/4 112/3/4 117/3/4
f 114/2/4 115/2/4 118/2/4
f 115/2/4 116/2/4 118/2/4
f 118/2/4 116/2/4 119/2/4
f 116/6/4 117/6/4 120/6/4
f 119/2/4 116/2/4 120/2/4
f 120/6/4 117/6/4 121/6/4
f 119/6/4 120/6/4 122/6/4
f 120/7/4 121/7/4 123/7/4
f 122/6/4 120/6/4 123/6/4
f 123/7/4 121/7/4 124/7/4
f 127/4/4 128/4/4 129/4/4
f 129/4/4 128/4/4 130/4/4
f 125/1/4 126/1/4 131/1/4
f 131/1/4 126/1/4 132/1/4
f 135/1/5 134/1/5 133/1/5
f 136/1/5 134/1/5 135/1/5
f 140/6/5 138/6/5 137/6/5
f 141/6/5 138/6/5 140/6/5
f 143/4/5 140/4/5 139/4/5
f 144/6/5 142/6/5 141/6/5
f 145/6/5 142/6/5 144/6/5
f 146/4/5 143/4/5 139/4/5
f 147/4/5 143/4/5 146/4/5
f 151/5/5 149/5/5 148/5/5
f 152/5/5 149/5/5 151/5/5
f 153/5/5 151/5/5 150/5/5
f 154/6/5 152/6/5 151/6/5
f 154/5/5 151/5/5 153/5/5
f 155/6/5 152/6/5 154/6/5
f 156/3/5 154/3/5 153/3/5
f 157/3/5 154/3/5 156/3/5
f 160/5/5 159/5/5 158/5/5
f 161/5/5 159/5/5 160/5/5
f 162/7/5 161/7/5 160/7/5
f 163/7/5 161/7/5 162/7/5
f 164/1/6 165/1/6 166/1/6
f 164/1/6 166/1/6 168/1/6
f 166/1/6 167/1/6 168/1/6
f 168/1/6 167/1/6 169/1/6
f 170/6/6 171/6/6 172/6/6
f 172/6/6 171/6/6 173/6/6
f 174/4/6 175/4/6 176/4/6
f 176/4/6 175/4/6 177/4/6
f 178/5/6 179/5/6 181/5/6
f 181/5/6 179/5/6 182/5/6
f 180/5/6 181/5/6 183/5/6
f 181/6/6 182/6/6 184/6/6
f 183/5/6 181/5/6 184/5/6
f 184/6/6 182/6/6 185/6/6
f 184/3/6 185/3/6 188/3/6
f 185/6/6 186/6/6 189/6/6
f 188/3/6 185/3/6 189/3/6
f 186/7/6 187/7/6 190/7/6
f 189/6/6 186/6/6 190/6/6
f 190/7/6 187/7/6 191/7/6
f 192/5/6 193/5/6 194/5/6
f 194/5/6 193/5/6 195/5/6
f 194/7/6 195/7/6 198/7/6
f 198/7/6 195/7/6 199/7/6
f 196/3/6 197/3/6 200/3/6
f 200/3/6 197/3/6 201/3/6
