# MagicaVoxel @ Ephtracy

# material
mtllib porte.mtl
usemtl palette

# normals
vn -1 0 0
vn 1 0 0
vn 0 0 1
vn 0 0 -1
vn 0 -1 0
vn 0 1 0

# texcoords
vt 0.306641 0.5
vt 0.373047 0.5
vt 0.783203 0.5

# verts
v -2.5 0 0.5
v -2.5 0 -0.5
v -2.5 5 1.5
v -2.5 5 0.5
v -2.5 5 -0.5
v -2.5 6 1.5
v -2.5 6 0.5
v -2.5 6 -0.5
v -2.5 10 0.5
v -2.5 10 -0.5
v -0.5 5 1.5
v -0.5 5 0.5
v -0.5 6 1.5
v -0.5 6 0.5
v 2.5 0 0.5
v 2.5 0 -0.5
v 2.5 10 0.5
v 2.5 10 -0.5
v -2.5 5 1.5
v -2.5 6 1.5
v -0.5 5 1.5
v -0.5 6 1.5
v -2.5 0 0.5
v -2.5 5 0.5
v -2.5 6 0.5
v -2.5 10 0.5
v -0.5 5 0.5
v -0.5 6 0.5
v 2.5 0 0.5
v 2.5 10 0.5
v -2.5 0 -0.5
v -2.5 5 -0.5
v -2.5 6 -0.5
v -2.5 10 -0.5
v -0.5 5 -0.5
v -0.5 6 -0.5
v 2.5 0 -0.5
v 2.5 10 -0.5
v -2.5 0 0.5
v 2.5 0 0.5
v -2.5 0 -0.5
v 2.5 0 -0.5
v -2.5 5 1.5
v -0.5 5 1.5
v -2.5 5 0.5
v -0.5 5 0.5
v -2.5 6 1.5
v -0.5 6 1.5
v -2.5 6 0.5
v -0.5 6 0.5
v -2.5 10 0.5
v 2.5 10 0.5
v -2.5 10 -0.5
v 2.5 10 -0.5

# faces
f 4/3/1 2/3/1 1/3/1
f 5/3/1 2/3/1 4/3/1
f 6/2/1 4/2/1 3/2/1
f 7/1/1 5/1/1 4/1/1
f 7/2/1 4/2/1 6/2/1
f 8/1/1 5/1/1 7/1/1
f 9/3/1 8/3/1 7/3/1
f 10/3/1 8/3/1 9/3/1
f 11/2/2 12/2/2 13/2/2
f 13/2/2 12/2/2 14/2/2
f 15/3/2 16/3/2 17/3/2
f 17/3/2 16/3/2 18/3/2
f 21/2/3 20/2/3 19/2/3
f 22/2/3 20/2/3 21/2/3
f 27/3/3 24/3/3 23/3/3
f 28/3/3 26/3/3 25/3/3
f 29/3/3 27/3/3 23/3/3
f 29/3/3 28/3/3 27/3/3
f 30/3/3 26/3/3 28/3/3
f 30/3/3 28/3/3 29/3/3
f 31/3/4 32/3/4 35/3/4
f 32/1/4 33/1/4 35/1/4
f 33/3/4 34/3/4 36/3/4
f 35/1/4 33/1/4 36/1/4
f 31/3/4 35/3/4 37/3/4
f 35/3/4 36/3/4 37/3/4
f 36/3/4 34/3/4 38/3/4
f 37/3/4 36/3/4 38/3/4
f 41/3/5 40/3/5 39/3/5
f 42/3/5 40/3/5 41/3/5
f 45/2/5 44/2/5 43/2/5
f 46/2/5 44/2/5 45/2/5
f 47/2/6 48/2/6 49/2/6
f 49/2/6 48/2/6 50/2/6
f 51/3/6 52/3/6 53/3/6
f 53/3/6 52/3/6 54/3/6
