# MagicaVoxel @ Ephtracy

# material
mtllib tele.mtl
usemtl palette

# normals
vn -1 0 0
vn 1 0 0
vn 0 0 1
vn 0 0 -1
vn 0 -1 0
vn 0 1 0

# texcoords
vt 0.978516 0.5
vt 0.986328 0.5

# verts
v -4 1 0.5
v -4 1 -0.5
v -4 4 0.5
v -4 4 -0.5
v -1 0 0.5
v -1 0 -0.5
v -1 1 0.5
v -1 1 -0.5
v 1 0 0.5
v 1 0 -0.5
v 1 1 0.5
v 1 1 -0.5
v 4 1 0.5
v 4 1 -0.5
v 4 4 0.5
v 4 4 -0.5
v -4 1 0.5
v -4 4 0.5
v -3 1 0.5
v -3 4 0.5
v -1 0 0.5
v -1 1 0.5
v 1 0 0.5
v 1 1 0.5
v 3 1 0.5
v 3 4 0.5
v 4 1 0.5
v 4 4 0.5
v -4 1 -0.5
v -4 4 -0.5
v -3 1 -0.5
v -3 4 -0.5
v -1 0 -0.5
v -1 1 -0.5
v 1 0 -0.5
v 1 1 -0.5
v 3 1 -0.5
v 3 4 -0.5
v 4 1 -0.5
v 4 4 -0.5
v -1 0 0.5
v 1 0 0.5
v -1 0 -0.5
v 1 0 -0.5
v -4 1 0.5
v -3 1 0.5
v -1 1 0.5
v 1 1 0.5
v 3 1 0.5
v 4 1 0.5
v -4 1 -0.5
v -3 1 -0.5
v -1 1 -0.5
v 1 1 -0.5
v 3 1 -0.5
v 4 1 -0.5
v -4 4 0.5
v -3 4 0.5
v 3 4 0.5
v 4 4 0.5
v -4 4 -0.5
v -3 4 -0.5
v 3 4 -0.5
v 4 4 -0.5

# faces
f 3/2/1 2/2/1 1/2/1
f 4/2/1 2/2/1 3/2/1
f 7/2/1 6/2/1 5/2/1
f 8/2/1 6/2/1 7/2/1
f 9/2/2 10/2/2 11/2/2
f 11/2/2 10/2/2 12/2/2
f 13/2/2 14/2/2 15/2/2
f 15/2/2 14/2/2 16/2/2
f 19/2/3 18/2/3 17/2/3
f 20/2/3 18/2/3 19/2/3
f 22/1/3 20/1/3 19/1/3
f 23/2/3 22/2/3 21/2/3
f 24/1/3 20/1/3 22/1/3
f 24/2/3 22/2/3 23/2/3
f 25/1/3 20/1/3 24/1/3
f 26/1/3 20/1/3 25/1/3
f 27/2/3 26/2/3 25/2/3
f 28/2/3 26/2/3 27/2/3
f 29/2/4 30/2/4 31/2/4
f 31/2/4 30/2/4 32/2/4
f 31/1/4 32/1/4 34/1/4
f 33/2/4 34/2/4 35/2/4
f 34/1/4 32/1/4 36/1/4
f 35/2/4 34/2/4 36/2/4
f 36/1/4 32/1/4 37/1/4
f 37/1/4 32/1/4 38/1/4
f 37/2/4 38/2/4 39/2/4
f 39/2/4 38/2/4 40/2/4
f 43/2/5 42/2/5 41/2/5
f 44/2/5 42/2/5 43/2/5
f 51/2/5 46/2/5 45/2/5
f 52/1/5 47/1/5 46/1/5
f 52/2/5 46/2/5 51/2/5
f 53/1/5 47/1/5 52/1/5
f 54/1/5 49/1/5 48/1/5
f 55/2/5 50/2/5 49/2/5
f 55/1/5 49/1/5 54/1/5
f 56/2/5 50/2/5 55/2/5
f 57/2/6 58/2/6 61/2/6
f 58/1/6 59/1/6 62/1/6
f 61/2/6 58/2/6 62/2/6
f 59/2/6 60/2/6 63/2/6
f 62/1/6 59/1/6 63/1/6
f 63/2/6 60/2/6 64/2/6
